# xmcd CD database file
#
# Track frame offsets:
#	152
#	5195
#	15186
#	20452
#	32350
#	37477
#	48007
#	60075
#	65452
#	72892
#	82254
#	86991
#
# Disc length: 1295 seconds
#
# Revision: 1
# Processed by: cddbd v1.4PL0 Copyright (c) Steve Scherf et al.
# Submitted via: CDex 1.50Beta7
#
DISCID=93050d0c
DTITLE=Jimmie Davis - Louisiana
DYEAR=2000
DGENRE=Country
TTITLE0=Bang Bang (inst)
TTITLE1=Live And Let Live (vocal)
TTITLE2=It Makes No Difference Now (inst)
TTITLE3=Let's Be Sweethearts Again (vocal)
TTITLE4=You Are My Sunshine (inst)
TTITLE5=You Wont Be Satisfied That Way (vocal)
TTITLE6=You Are My Sunshine (vocal)
TTITLE7=Worried Mind (inst)
TTITLE8=Bang Bang (vocal)
TTITLE9=It Makes No Difference Now (vocal)
TTITLE10=You Wont Be Satisfied That Way (inst)
TTITLE11=There's A New Moon Over My Shoulder (vocal)
EXTD=YEAR: 2000
EXTT0=
EXTT1=
EXTT2=
EXTT3=
EXTT4=
EXTT5=
EXTT6=
EXTT7=
EXTT8=
EXTT9=
EXTT10=
EXTT11=
PLAYORDER=
